<?xml version="1.0" encoding="UTF-8" standalone="no"?>
<!-- Created with Inkscape (http://www.inkscape.org/) -->

<svg
   version="1.1"
   id="svg1"
   width="1365.3333"
   height="1365.3333"
   viewBox="0 0 1365.3333 1365.3333"
   xmlns="http://www.w3.org/2000/svg"
   xmlns:svg="http://www.w3.org/2000/svg">
  <defs
     id="defs1" />
  <g
     id="g1">
    <path
       style="fill:#000000"
       d="m 183.71014,1365.6915 c -50.07611,-5.0481 -93.618418,-26.0664 -127.539568,-61.5645 -13.62375,-14.2571 -27.31575,-33.8664 -34.492119,-49.3987 -6.99649,-15.143 -14.9301401,-40.0558 -16.5501301,-51.9698 -0.98136,-7.2172 -1.41818,-167.4341 -1.41818,-520.15862 0,-563.76966 -0.71811,-518.79183 8.7204401,-546.19217 C 36.524092,66.463633 89.536102,20.482166 164.37681,4.6128621 l 13.33333,-2.827215 511.33327,0.403459 c 487.84399,0.384924 511.79269,0.514181 521.33329,2.813759 43.1056,10.3897419 72.1949,26.2131139 100.7093,54.7816479 23.3002,23.344524 39.4866,49.944577 49.1658,80.797587 9.4539,30.1346 8.775,-11.84583 8.7837,543.10182 0.01,559.00838 0.7814,514.22238 -9.4062,545.24708 -10.2831,31.3154 -25.2906,55.7027 -48.5683,78.924 -33.6558,33.5742 -75.0515,53.2654 -121.8256,57.9503 -17.0437,1.7072 -988.55306,1.5972 -1005.52526,-0.1138 z M 1194.7713,1263.5606 c 36.3607,-10.3581 62.6622,-36.7379 71.6443,-71.8576 2.5917,-10.1337 2.6278,-17.0936 2.6278,-507.84796 0,-492.55648 -0.027,-497.67974 -2.6571,-508.12002 -8.7414,-34.69704 -36.3444,-62.26216 -71.3003,-71.20236 -10.392,-2.65784 -14.1545,-2.67759 -510.10669,-2.67759 H 185.34178 l -11.81582,3.4106 c -32.45913,9.36921 -59.60301,36.28135 -67.83519,67.25607 -2.87757,10.82727 -2.95494,1011.55436 -0.079,1022.35776 7.61204,28.5946 31.22521,54.156 60.05185,65.0063 19.95725,7.5119 -11.84114,7.0958 524.04649,6.8567 l 494.66669,-0.2208 z M 922.37681,1049.3344 c -13.5375,-3.01 -24.1695,-10.68 -32.0674,-23.1336 -4.2444,-6.6928 -4.2056,-6.7468 -6.6966,9.3209 l -1.6019,10.3333 h -21.8171 -21.817 V 919.18836 792.5217 h 24 24 v 48.22859 48.22859 l 4.1312,-6.23703 c 9.4797,-14.31181 23.5367,-22.23193 41.2508,-23.24194 19.2106,-1.09534 32.8281,4.33255 45.4741,18.12577 17.3234,18.89499 26.18069,54.92843 22.6481,92.13719 -4.4774,47.16123 -22.7618,74.19703 -54.0825,79.96783 -9.6697,1.7816 -13.9522,1.7092 -23.4217,-0.3963 z m 6.2465,-39.5611 c 5.4131,-2.0409 12.16,-8.9433 15.9053,-16.27211 5.4871,-10.7368 7.5845,-21.51612 7.5845,-38.9795 0,-37.1642 -13.1279,-57.51388 -35.4013,-54.87592 -11.8146,1.39926 -21.523,11.62831 -26.6974,28.12919 -4.2712,13.62074 -4.2571,41.24991 0.028,54.91933 6.9833,22.27601 22.4766,33.15051 38.5808,27.07901 z m 167.08669,39.9932 c -10.7746,-1.1498 -32.9466,-5.5237 -42.6666,-8.417 l -6,-1.7859 -0.3672,-20.8543 c -0.202,-11.4698 -0.1096,-20.85431 0.2053,-20.85431 0.3148,0 5.5801,2.39951 11.7005,5.33211 16.152,7.7394 34.2834,12.0013 51.057,12.0013 24.2011,0 34.071,-5.4075 34.071,-18.66671 0,-12.6933 -6.9467,-17.0619 -40.0422,-25.18172 -23.7849,-5.8354 -34.9564,-10.5867 -44.3649,-18.86835 -22.1037,-19.45651 -20.2741,-61.29821 3.4204,-78.22137 14.5338,-10.38038 25.9353,-13.65256 50.9867,-14.63298 20.1595,-0.78896 35.0882,1.00728 53.6667,6.4572 l 9.6667,2.83569 v 20.96544 20.96544 l -9.6667,-5.04095 c -15.8612,-8.27127 -27.3571,-11.18455 -44.3333,-11.2349 -16.9271,-0.0502 -25.1588,2.32058 -30.6288,8.82127 -4.3465,5.16556 -4.3027,10.49037 0.1298,15.75806 5.2162,6.19903 11.7284,8.93825 36.6525,15.41708 32.6286,8.48156 42.2464,13.47248 51.0859,26.50997 6.8559,10.1119 9.154,19.80702 8.5228,35.95622 -0.5901,15.09621 -3.7795,24.19841 -11.6006,33.10611 -14.3564,16.351 -44.4069,23.5904 -81.495,19.6326 z M 330.28141,977.22569 c -33.82422,-5.50202 -59.93269,-16.13522 -83.82701,-34.1401 -38.59371,-29.08124 -59.41198,-71.88505 -62.52896,-128.56389 -2.69005,-48.91546 5.02724,-86.12424 23.9207,-115.33333 27.25722,-42.13937 75.26135,-67.33325 145.86399,-76.55341 29.23455,-3.81781 51.46411,-4.77341 111.11714,-4.77668 l 59.11714,-0.003 -0.5171,-21 c -0.6016,-24.43206 -2.6882,-31.75941 -12.0839,-42.43347 -10.984,-12.47853 -25.0307,-19.3122 -49.63329,-24.14648 -16.73387,-3.28812 -64.31795,-3.27962 -85.99999,0.0154 -39.71485,6.0354 -75.5032,17.61205 -118.33333,38.27794 l -21.66666,10.45434 v -59.10794 -59.10795 l 16.33333,-5.97035 c 58.07559,-21.2285 112.85734,-30.5369 179.66665,-30.52859 60.73789,0.008 102.99759,7.67751 137.33329,24.92543 51.2618,25.75039 77.9437,68.57155 88.6688,142.30243 4.1839,28.76267 4.6361,51.60325 3.181,160.69599 -1.0421,78.12671 -1.0274,112.55976 0.055,127.46384 2.7636,38.07163 9.1456,64.53608 19.5299,80.986 l 3.2659,5.1734 h -68.5567 -68.5567 l -3.5262,-6.0169 c -5.4838,-9.35738 -10.1067,-22.66463 -13.3006,-38.2864 l -2.9244,-14.30332 -4.9899,6.54324 c -6.8265,8.95144 -21.445,22.53479 -33.13272,30.78643 -19.83915,14.00665 -45.92713,24.77405 -74.37958,30.69897 -18.06516,3.7619 -66.10512,4.8751 -84.09538,1.9487 z m 112.76205,-97.24825 c 4.4,-1.18938 12.4867,-4.35382 17.97044,-7.03209 18.60874,-9.08856 37.06561,-31.27517 47.45831,-57.04852 9.1356,-22.65604 15.1716,-55.40145 15.2135,-82.53395 l 0.024,-15.82549 -47.00002,0.73087 c -73.6333,1.14503 -95.06398,5.15723 -119.60592,22.39237 -15.64072,10.98404 -22.77151,24.6335 -25.63951,49.07809 -5.52601,47.09926 16.47178,82.40108 56.9121,91.33195 12.03711,2.65829 43.08519,2.03738 54.66667,-1.09323 z M 763.04341,569.77462 c -12.5383,-1.2347 -26.8661,-4.11506 -40.3333,-8.10835 l -9.6667,-2.86635 v -22.47244 c 0,-12.35984 0.2275,-22.47243 0.5056,-22.47243 0.278,0 3.8319,1.52285 7.8974,3.38411 18.0261,8.25261 52.0589,13.80626 69.6293,11.36244 24.0099,-3.33946 34.486,-13.70056 34.3235,-33.94679 -0.099,-12.33435 -3.0141,-19.34639 -11.0448,-26.56667 -9.3092,-8.36972 -16.3739,-10.23309 -38.7974,-10.23309 h -18.5136 v -21.13749 -21.1375 l 19,-0.75493 c 19.7837,-0.78608 27.0023,-2.4166 34.5768,-7.8101 8.3742,-5.96296 11.4552,-20.54818 6.5823,-31.15997 -3.0175,-6.57114 -5.7243,-9.03813 -14.2078,-12.94907 -5.7941,-2.67114 -8.6097,-3.03605 -22.6179,-2.93139 -16.7173,0.12491 -31.1207,2.79253 -50.3005,9.316 l -9.0329,3.07226 v -21.88332 -21.88332 l 7,-2.00974 c 40.4072,-11.60113 80.9941,-10.85226 106.3865,1.96294 20.7295,10.46181 31.9469,29.3943 31.9469,53.91914 0,24.35523 -13.782,42.34534 -38.3191,50.01937 l -6.9856,2.18479 9.2479,2.9785 c 18.1848,5.8568 31.7912,18.28696 37.6922,34.43379 3.4418,9.41748 4.769,33.52137 2.4586,44.65042 -8.2017,39.50755 -47.5516,58.9354 -107.4274,53.03919 z"
       id="path1" />
  </g>
</svg>
