<?xml version="1.0" encoding="UTF-8" standalone="no"?>
<!-- Created with Inkscape (http://www.inkscape.org/) -->

<svg
   version="1.1"
   id="svg1"
   width="266.66666"
   height="266.66666"
   viewBox="0 0 266.66666 266.66666"
   xmlns="http://www.w3.org/2000/svg"
   xmlns:svg="http://www.w3.org/2000/svg">
  <defs
     id="defs1" />
  <g
     id="g1">
    <path
       style="fill:#000000"
       d="M 119.10764,247.54369 C 77.570677,241.70975 43.358381,216.29708 26.25292,178.57179 10.007108,142.74242 14.611766,96.54133 37.631781,64.401369 44.427967,54.912706 58.934027,40.652573 68.245387,34.306767 99.74012,12.842727 145.47948,8.8889709 180.19498,24.629732 c 26.08913,11.829378 47.95979,33.636397 59.69786,59.524173 12.98703,28.642265 12.98703,66.093395 0,94.735665 -11.73807,25.88777 -33.60873,47.69479 -59.69786,59.52417 -16.81057,7.62228 -43.46174,11.60549 -61.08734,9.12995 z m 38.70395,-19.3172 c 4.4,-1.12958 13.7,-4.84913 20.66667,-8.26567 10.68177,-5.23846 14.5649,-8.11011 24.78027,-18.32548 10.20856,-10.20856 13.09152,-14.10562 18.33192,-24.78027 8.56159,-17.43988 10.76061,-26.70412 10.76061,-45.33333 0,-18.62921 -2.19902,-27.89345 -10.76061,-45.333337 -5.2404,-10.674646 -8.12336,-14.57171 -18.33192,-24.780269 -10.20856,-10.20856 -14.10562,-13.091526 -24.78027,-18.331923 -17.43988,-8.561587 -26.70412,-10.760605 -45.33333,-10.760605 -18.62921,0 -27.89345,2.199018 -45.333343,10.760605 -10.67464,5.240397 -14.57171,8.123363 -24.780265,18.331923 -10.20856,10.208559 -13.091526,14.105623 -18.331923,24.780269 -8.561587,17.439887 -10.760605,26.704127 -10.760605,45.333337 0,18.62921 2.199018,27.89345 10.760605,45.33333 5.262619,10.71991 8.080074,14.51747 18.331923,24.70901 15.966445,15.87253 30.730375,23.81985 52.113608,28.05242 11.18,2.21295 31.16882,1.56175 42.66666,-1.39001 z M 113.30993,204.0849 C 95.790027,199.37273 77.436037,185.9971 68.169067,171.18813 57.937175,154.83715 55.929594,145.25316 61.91492,141.33143 c 3.824827,-2.50613 9.479937,-1.40961 11.296137,2.19031 0.55496,1.1 2.85806,5.95524 5.118,10.78943 10.32801,22.09244 30.296463,34.75197 54.815873,34.75197 24.51941,0 44.48785,-12.65953 54.81587,-34.75197 2.25993,-4.83419 4.56303,-9.68943 5.118,-10.78943 1.81619,-3.59992 7.4713,-4.69644 11.29613,-2.19031 6.14776,4.02816 3.88482,14.09936 -6.85105,30.4906 -10.09413,15.41145 -27.18482,27.6582 -45.11535,32.32851 -9.75107,2.53984 -29.53493,2.50662 -39.0986,-0.0656 z M 90.549187,118.42385 c -10.18496,-10.70662 -10.26566,-29.679438 -0.17137,-40.290744 5.84052,-6.139657 10.998483,-6.910763 16.624503,-2.485335 11.95887,9.406852 12.5767,33.900419 1.11653,44.264289 -1.45375,1.31468 -4.83338,2.74575 -7.51029,3.18015 -4.411763,0.71593 -5.352903,0.27917 -10.059373,-4.66836 z m 66.666673,0 c -10.18497,-10.70662 -10.26566,-29.679438 -0.17137,-40.290744 5.84051,-6.139657 10.99847,-6.910763 16.62449,-2.485335 11.95888,9.406852 12.5767,33.900419 1.11653,44.264289 -1.45375,1.31468 -4.83338,2.74575 -7.51029,3.18015 -4.41175,0.71593 -5.35289,0.27917 -10.05936,-4.66836 z"
       id="path1" />
  </g>
</svg>
